grf
version=1
nRows=63
nColumns=19
inDegrees=yes
endheader
time	ground_force_2_vx	ground_force_2_vy	ground_force_2_vz	ground_force_2_px	ground_force_2_py	ground_force_2_pz	ground_moment_2_mx	ground_moment_2_my	ground_moment_2_mz	ground_force_3_vx	ground_force_3_vy	ground_force_3_vz	ground_force_3_px	ground_force_3_py	ground_force_3_pz	ground_moment_3_mx	ground_moment_3_my	ground_moment_3_mz
1.575000	0.000000	0.000000	0.000000	-0.090568	0.000000	0.197671	0.000000	0.000000	0.000000	0.000000	0.000000	0.000000	-0.721419	0.000000	0.355933	0.000000	0.000000	0.000000
1.576000	0.000000	0.000000	0.000000	-0.090116	0.000000	0.197851	0.000000	0.000000	0.000000	0.000000	0.000000	0.000000	-0.721217	0.000000	0.355774	0.000000	0.000000	0.000000
1.577000	0.000000	0.000000	0.000000	-0.089628	0.000000	0.198046	0.000000	0.000000	0.000000	0.000000	0.000000	0.000000	-0.721002	0.000000	0.355605	0.000000	0.000000	0.000000
1.578000	0.000000	0.000000	0.000000	-0.089097	0.000000	0.198257	0.000000	0.000000	0.000000	0.000000	0.000000	0.000000	-0.720774	0.000000	0.355426	0.000000	0.000000	0.000000
1.579000	0.000000	0.000000	0.000000	-0.088517	0.000000	0.198488	0.000000	0.000000	0.000000	0.000000	0.000000	0.000000	-0.720529	0.000000	0.355233	0.000000	0.000000	0.000000
1.580000	0.000000	0.000000	0.000000	-0.087878	0.000000	0.198743	0.000000	0.000000	0.000000	0.000000	0.000000	0.000000	-0.720266	0.000000	0.355027	0.000000	0.000000	0.000000
1.581000	0.000000	0.000000	0.000000	-0.087171	0.000000	0.199025	0.000000	0.000000	0.000000	0.000000	0.000000	0.000000	-0.719982	0.000000	0.354804	0.000000	0.000000	0.000000
1.582000	0.000000	0.000000	0.000000	-0.086381	0.000000	0.199340	0.000000	0.000000	0.000000	0.000000	0.000000	0.000000	-0.719673	0.000000	0.354561	0.000000	0.000000	0.000000
1.583000	0.000000	0.000000	0.000000	-0.085490	0.000000	0.199695	0.000000	0.000000	0.000000	0.000000	0.000000	0.000000	-0.719336	0.000000	0.354296	0.000000	0.000000	0.000000
1.584000	0.000000	0.000000	0.000000	-0.084477	0.000000	0.200098	0.000000	0.000000	0.000000	0.000000	0.000000	0.000000	-0.718965	0.000000	0.354004	0.000000	0.000000	0.000000
1.585000	0.000000	0.000000	0.000000	-0.083311	0.000000	0.200563	0.000000	0.000000	0.000000	0.000000	0.000000	0.000000	-0.718554	0.000000	0.353681	0.000000	0.000000	0.000000
1.586000	0.000000	0.000000	0.000000	-0.081951	0.000000	0.201105	0.000000	0.000000	0.000000	0.000000	0.000000	0.000000	-0.718095	0.000000	0.353321	0.000000	0.000000	0.000000
1.587000	0.000000	0.000000	0.000000	-0.080340	0.000000	0.201747	0.000000	0.000000	0.000000	0.000000	0.000000	0.000000	-0.717578	0.000000	0.352914	0.000000	0.000000	0.000000
1.588000	0.000000	0.000000	0.000000	-0.078399	0.000000	0.202521	0.000000	0.000000	0.000000	0.000000	0.000000	0.000000	-0.716990	0.000000	0.352452	0.000000	0.000000	0.000000
1.589000	0.000000	0.000000	0.000000	-0.076007	0.000000	0.203474	0.000000	0.000000	0.000000	0.000000	0.000000	0.000000	-0.716313	0.000000	0.351921	0.000000	0.000000	0.000000
1.590000	0.000000	0.000000	0.000000	-0.072978	0.000000	0.204682	0.000000	0.000000	0.000000	0.000000	0.000000	0.000000	-0.715525	0.000000	0.351302	0.000000	0.000000	0.000000
1.591000	0.000000	0.000000	0.000000	-0.069011	0.000000	0.206263	0.000000	0.000000	0.000000	0.000000	0.000000	0.000000	-0.714592	0.000000	0.350569	0.000000	0.000000	0.000000
1.592000	0.000000	0.000000	0.000000	-0.063573	0.000000	0.208430	0.000000	0.000000	0.000000	0.000000	0.000000	0.000000	-0.713469	0.000000	0.349686	0.000000	0.000000	0.000000
1.593000	0.000000	0.000000	0.000000	-0.055642	0.000000	0.211591	0.000000	0.000000	0.000000	0.000000	0.000000	0.000000	-0.712086	0.000000	0.348599	0.000000	0.000000	0.000000
1.594000	0.000000	0.000000	0.000000	-0.042955	0.000000	0.216648	0.000000	0.000000	0.000000	0.000000	0.000000	0.000000	-0.710338	0.000000	0.347226	0.000000	0.000000	0.000000
1.595000	0.000000	0.000000	0.000000	-0.019325	0.000000	0.226066	0.000000	0.000000	0.000000	0.000000	0.000000	0.000000	-0.708052	0.000000	0.345430	0.000000	0.000000	0.000000
1.596000	0.000000	0.000000	0.000000	0.040369	-0.000000	0.249858	0.000000	0.000000	0.000000	0.000000	0.000000	0.000000	-0.704927	0.000000	0.342974	0.000000	0.000000	0.000000
1.597000	0.000000	0.000000	0.000000	0.488791	-0.000000	0.428581	0.000000	0.000000	0.000000	0.000000	0.000000	0.000000	-0.700384	0.000000	0.339405	0.000000	0.000000	0.000000
1.598000	0.000000	0.000000	0.000000	-0.356339	0.000000	0.091744	0.000000	0.000000	0.000000	0.000000	0.000000	0.000000	-0.693154	0.000000	0.333724	0.000000	0.000000	0.000000
1.599000	0.000000	0.000000	0.000000	-0.203137	0.000000	0.152805	0.000000	0.000000	0.000000	0.000000	0.000000	0.000000	-0.679813	0.000000	0.323242	0.000000	0.000000	0.000000
1.600000	0.000000	0.000000	0.000000	-0.163654	0.000000	0.168541	0.000000	0.000000	0.000000	0.000000	0.000000	0.000000	-0.646810	0.000000	0.297311	0.000000	0.000000	0.000000
1.601000	0.000000	0.000000	0.000000	-0.145517	0.000000	0.175770	0.000000	0.000000	0.000000	0.000000	0.000000	0.000000	-0.427133	0.000000	0.124705	0.000000	0.000000	0.000000
1.602000	0.000000	0.000000	0.000000	-0.135080	0.000000	0.179930	0.000000	0.000000	0.000000	0.000000	0.000000	0.000000	-0.886575	0.000000	0.485700	0.000000	0.000000	0.000000
1.603000	0.000000	0.000000	0.000000	-0.128286	0.000000	0.182638	0.000000	0.000000	0.000000	0.000000	0.000000	0.000000	-0.788000	0.000000	0.408247	0.000000	0.000000	0.000000
1.604000	0.000000	0.000000	0.000000	-0.123503	0.000000	0.184544	0.000000	0.000000	0.000000	0.000000	0.000000	0.000000	-0.763881	0.000000	0.389296	0.000000	0.000000	0.000000
1.605000	0.000000	0.000000	0.000000	-0.119945	0.000000	0.185962	0.000000	0.000000	0.000000	0.000000	0.000000	0.000000	-0.752968	0.000000	0.380721	0.000000	0.000000	0.000000
1.606000	0.000000	0.000000	0.000000	-0.117190	0.000000	0.187060	0.000000	0.000000	0.000000	0.000000	0.000000	0.000000	-0.746735	0.000000	0.375824	0.000000	0.000000	0.000000
1.607000	0.000000	0.000000	0.000000	-0.114990	0.000000	0.187937	0.000000	0.000000	0.000000	0.000000	0.000000	0.000000	-0.742696	0.000000	0.372651	0.000000	0.000000	0.000000
1.608000	0.000000	0.000000	0.000000	-0.113188	0.000000	0.188655	0.000000	0.000000	0.000000	0.000000	0.000000	0.000000	-0.739861	0.000000	0.370423	0.000000	0.000000	0.000000
1.609000	0.000000	0.000000	0.000000	-0.111682	0.000000	0.189256	0.000000	0.000000	0.000000	0.000000	0.000000	0.000000	-0.737757	0.000000	0.368769	0.000000	0.000000	0.000000
1.610000	0.000000	0.000000	0.000000	-0.110403	0.000000	0.189766	0.000000	0.000000	0.000000	0.000000	0.000000	0.000000	-0.736130	0.000000	0.367491	0.000000	0.000000	0.000000
1.611000	0.000000	0.000000	0.000000	-0.109300	0.000000	0.190205	0.000000	0.000000	0.000000	0.000000	0.000000	0.000000	-0.734832	0.000000	0.366472	0.000000	0.000000	0.000000
1.612000	0.000000	0.000000	0.000000	-0.108337	0.000000	0.190589	0.000000	0.000000	0.000000	0.000000	0.000000	0.000000	-0.733771	0.000000	0.365638	0.000000	0.000000	0.000000
1.613000	0.000000	0.000000	0.000000	-0.107488	0.000000	0.190927	0.000000	0.000000	0.000000	0.000000	0.000000	0.000000	-0.732884	0.000000	0.364941	0.000000	0.000000	0.000000
1.614000	0.000000	0.000000	0.000000	-0.106731	0.000000	0.191229	0.000000	0.000000	0.000000	0.000000	0.000000	0.000000	-0.732132	0.000000	0.364350	0.000000	0.000000	0.000000
1.615000	0.000000	0.000000	0.000000	-0.106052	0.000000	0.191499	0.000000	0.000000	0.000000	0.000000	0.000000	0.000000	-0.731483	0.000000	0.363841	0.000000	0.000000	0.000000
1.616000	0.000000	0.000000	0.000000	-0.105437	0.000000	0.191745	0.000000	0.000000	0.000000	0.000000	0.000000	0.000000	-0.730918	0.000000	0.363396	0.000000	0.000000	0.000000
1.617000	0.000000	0.000000	0.000000	-0.104877	0.000000	0.191968	0.000000	0.000000	0.000000	0.000000	0.000000	0.000000	-0.730419	0.000000	0.363004	0.000000	0.000000	0.000000
1.618000	0.000000	0.000000	0.000000	-0.104363	0.000000	0.192173	0.000000	0.000000	0.000000	0.000000	0.000000	0.000000	-0.729975	0.000000	0.362656	0.000000	0.000000	0.000000
1.619000	0.000000	0.000000	0.000000	-0.103890	0.000000	0.192361	0.000000	0.000000	0.000000	0.000000	0.000000	0.000000	-0.729577	0.000000	0.362342	0.000000	0.000000	0.000000
1.620000	0.000000	0.000000	0.000000	-0.103450	0.000000	0.192536	0.000000	0.000000	0.000000	0.000000	0.000000	0.000000	-0.729216	0.000000	0.362059	0.000000	0.000000	0.000000
1.621000	0.000000	0.000000	0.000000	-0.103041	0.000000	0.192699	0.000000	0.000000	0.000000	0.000000	0.000000	0.000000	-0.728888	0.000000	0.361801	0.000000	0.000000	0.000000
1.622000	0.000000	0.000000	0.000000	-0.102658	0.000000	0.192852	0.000000	0.000000	0.000000	0.000000	0.000000	0.000000	-0.728586	0.000000	0.361564	0.000000	0.000000	0.000000
1.623000	0.000000	0.000000	0.000000	-0.102298	0.000000	0.192996	0.000000	0.000000	0.000000	0.000000	0.000000	0.000000	-0.728309	0.000000	0.361346	0.000000	0.000000	0.000000
1.624000	0.000000	0.000000	0.000000	-0.101959	0.000000	0.193131	0.000000	0.000000	0.000000	0.000000	0.000000	0.000000	-0.728051	0.000000	0.361144	0.000000	0.000000	0.000000
1.625000	0.000000	0.000000	0.000000	-0.101637	0.000000	0.193259	0.000000	0.000000	0.000000	0.000000	0.000000	0.000000	-0.727812	0.000000	0.360956	0.000000	0.000000	0.000000
1.626000	0.000000	0.000000	0.000000	-0.101331	0.000000	0.193381	0.000000	0.000000	0.000000	0.000000	0.000000	0.000000	-0.727587	0.000000	0.360779	0.000000	0.000000	0.000000
1.627000	0.000000	0.000000	0.000000	-0.101039	0.000000	0.193497	0.000000	0.000000	0.000000	0.000000	0.000000	0.000000	-0.727377	0.000000	0.360614	0.000000	0.000000	0.000000
1.628000	0.000000	0.000000	0.000000	-0.100760	0.000000	0.193609	0.000000	0.000000	0.000000	0.000000	0.000000	0.000000	-0.727178	0.000000	0.360457	0.000000	0.000000	0.000000
1.629000	0.000000	0.000000	0.000000	-0.100492	0.000000	0.193716	0.000000	0.000000	0.000000	0.000000	0.000000	0.000000	-0.726989	0.000000	0.360309	0.000000	0.000000	0.000000
1.630000	0.000000	0.000000	0.000000	-0.100234	0.000000	0.193818	0.000000	0.000000	0.000000	0.000000	0.000000	0.000000	-0.726810	0.000000	0.360169	0.000000	0.000000	0.000000
1.631000	0.000000	0.000000	0.000000	-0.099984	0.000000	0.193918	0.000000	0.000000	0.000000	0.000000	0.000000	0.000000	-0.726640	0.000000	0.360035	0.000000	0.000000	0.000000
1.632000	0.000000	0.000000	0.000000	-0.099743	0.000000	0.194014	0.000000	0.000000	0.000000	0.000000	0.000000	0.000000	-0.726476	0.000000	0.359906	0.000000	0.000000	0.000000
1.633000	0.000000	0.000000	0.000000	-0.099509	0.000000	0.194107	0.000000	0.000000	0.000000	0.000000	0.000000	0.000000	-0.726319	0.000000	0.359783	0.000000	0.000000	0.000000
1.634000	0.000000	0.000000	0.000000	-0.099281	0.000000	0.194198	0.000000	0.000000	0.000000	0.000000	0.000000	0.000000	-0.726168	0.000000	0.359664	0.000000	0.000000	0.000000
1.635000	0.000000	0.000000	0.000000	-0.099058	0.000000	0.194287	0.000000	0.000000	0.000000	0.000000	0.000000	0.000000	-0.726023	0.000000	0.359550	0.000000	0.000000	0.000000
1.636000	0.000000	0.000000	0.000000	-0.098840	0.000000	0.194374	0.000000	0.000000	0.000000	0.000000	0.000000	0.000000	-0.725882	0.000000	0.359439	0.000000	0.000000	0.000000
1.637000	0.000000	0.000000	0.000000	-0.098627	0.000000	0.194459	0.000000	0.000000	0.000000	0.000000	0.000000	0.000000	-0.725744	0.000000	0.359331	0.000000	0.000000	0.000000
